<?xml version="1.0" encoding="utf-8"?>
<svg width="800px" height="800px" viewBox="0 0 960 960" fill="none" xmlns="http://www.w3.org/2000/svg">

  <!-- Main music note -->
  <path d="M592.448 676.492C634.941 548.274 689.177 423.607 727.239 294.235C728.897 287.334 727.228 283.457 719.294 281.709C622.855 263.12 528.089 232.324 430.221 223.091C412.095 330.54 388.216 436.331 364.157 542.468C342.362 615.971 322.161 723.719 232.862 739.576C190.558 745.804 155.44 716.767 152.031 674.155C152.533 607.712 208.223 541.795 268.736 557.322C280.026 560.837 290.903 565.663 303.375 570.441C336.499 451.986 358.667 329.019 380.87 207.933C389.514 157.034 449.275 172.417 485.656 177.892C570.069 196.051 654.789 213.267 738.464 234.573C793.265 244.735 779.161 306.258 766.581 344.77C746.661 402.504 724.432 459.439 703.634 516.878C673.232 600.523 646.883 685.763 608.832 766.403C604.543 775.907 597.859 784.555 591.205 792.726C542.974 856.995 435.247 818.887 436.935 738.333C437.239 664.774 537.81 635.657 592.448 676.492Z" fill="#000000"/>

  <!-- Hand-drawn mute slash -->
  <path
    d="M140 160
       C 240 260, 340 360, 440 460
       C 540 560, 650 680, 740 770
       C 800 830, 840 860, 880 820
       L 840 780
       C 790 730, 700 640, 600 540
       C 500 440, 390 330, 280 220
       C 210 150, 170 120, 140 160
       Z"
    fill="#000000"/>

</svg>
